REM MD5 c4a0d951b6fea7c38dc3e2a24703c7c7
FILE "Time Commando (Japan).bin" BINARY
  TRACK 01 MODE2/2352
    INDEX 01 00:00:00
  TRACK 02 AUDIO
    INDEX 00 44:26:37
    INDEX 01 44:28:37
  TRACK 03 AUDIO
    INDEX 00 47:35:59
    INDEX 01 47:37:59
REM LEADOUT 50:47:02
